<svg xmlns="http://www.w3.org/2000/svg"  viewBox="0 0 64 64" width="64px" height="64px"><path fill="#85cbf8" d="M57,51V13c0-3.31-2.69-6-6-6H13c-3.31,0-6,2.69-6,6v38c0,3.31,2.69,6,6,6h38C54.31,57,57,54.31,57,51	z"/><path fill="#7bbeeb" d="M53,57H11c-2-1-2-1-4-3l0,0c0-1.657,1.343-3,3-3h44c1.657,0,3,1.343,3,3l0,0C55,56,55,56,53,57z"/><path fill="#8d6c9f" d="M51,58H13c-3.86,0-7-3.141-7-7V13c0-3.859,3.14-7,7-7h38c3.86,0,7,3.141,7,7v38	C58,54.859,54.86,58,51,58z M13,8c-2.757,0-5,2.243-5,5v38c0,2.757,2.243,5,5,5h38c2.757,0,5-2.243,5-5V13c0-2.757-2.243-5-5-5H13z"/><path fill="#8d6c9f" d="M16,50v2c0,0.552,0.448,1,1,1s1-0.448,1-1v-2c0-0.552-0.448-1-1-1S16,49.448,16,50z M13,52v-2	c0-0.552-0.448-1-1-1s-1,0.448-1,1v2c0,0.552,0.448,1,1,1S13,52.552,13,52z M31,50v2c0,0.552,0.448,1,1,1s1-0.448,1-1v-2	c0-0.552-0.448-1-1-1S31,49.448,31,50z M36,50v2c0,0.552,0.448,1,1,1s1-0.448,1-1v-2c0-0.552-0.448-1-1-1S36,49.448,36,50z M41,50v2	c0,0.552,0.448,1,1,1s1-0.448,1-1v-2c0-0.552-0.448-1-1-1S41,49.448,41,50z M46,50v2c0,0.552,0.448,1,1,1s1-0.448,1-1v-2	c0-0.552-0.448-1-1-1S46,49.448,46,50z M53,52v-2c0-0.552-0.448-1-1-1s-1,0.448-1,1v2c0,0.552,0.448,1,1,1S53,52.552,53,52z M21,50	v2c0,0.552,0.448,1,1,1s1-0.448,1-1v-2c0-0.552-0.448-1-1-1S21,49.448,21,50z M26,50v2c0,0.552,0.448,1,1,1s1-0.448,1-1v-2	c0-0.552-0.448-1-1-1S26,49.448,26,50z"/><path fill="#fff8ee" d="M35,20c-2.942,0-5.259,1.08-7,2.389V12h-6v30c2.5,1.5,6,2,11,2s11-3,11-9v-5.5C44,24,43,20,35,20z M28,39.5V27c2-2,4-3,6-3s4,1,4,5v7C38,39,33,41,28,39.5z"/><path fill="#8d6c9f" d="M33,45c-5.568,0-9.012-0.641-11.515-2.143C21.184,42.677,21,42.352,21,42V12c0-0.553,0.448-1,1-1h6 c0.552,0,1,0.447,1,1v8.549C30.859,19.521,32.87,19,35,19c9.227,0,10,5.42,10,10.5V35C45,41.26,38.898,45,33,45z M23,41.413 C25.148,42.521,28.194,43,33,43c3.866,0,10-2.172,10-8v-5.5c0-5.759-1.197-8.5-8-8.5c-2.314,0-4.467,0.736-6.399,2.188 c-0.302,0.227-0.708,0.263-1.047,0.095C27.214,23.114,27,22.768,27,22.389V13h-4V41.413z M31.473,41.015 c-1.234,0-2.514-0.183-3.76-0.557C27.29,40.331,27,39.941,27,39.5V27c0-0.266,0.105-0.52,0.293-0.707 C29.478,24.107,31.734,23,34,23c1.867,0,5,0.779,5,6v7c0,1.273-0.666,2.47-1.874,3.368C35.674,40.449,33.645,41.015,31.473,41.015z M29,38.731c2.961,0.687,5.576,0.041,6.933-0.968C36.419,37.401,37,36.801,37,36v-7c0-3.585-1.712-4-3-4 c-1.623,0-3.303,0.814-5,2.422V38.731z"/></svg>